<svg xmlns="http://www.w3.org/2000/svg" width="531" height="398" viewBox="0 0 531 398">
  <rect width="531" height="398" fill="#ffffff"/>
  <text x="265.5" y="28" text-anchor="middle" font-family="Arial, sans-serif" font-size="18" font-weight="700" fill="#0e3357">End-to-End Healthcare ETL Pipeline on AWS</text>
  <line x1="40" y1="36" x2="491" y2="36" stroke="#6f8ca5" stroke-width="1"/>

  <g font-family="Arial, sans-serif" font-size="11" font-weight="700" fill="#fff">
    <polygon points="20,60 90,60 103,78 90,96 20,96" fill="#0e73bf"/><text x="55" y="82" text-anchor="middle">Raw Data</text>
    <polygon points="94,60 173,60 186,78 173,96 94,96" fill="#1a7fc8"/><text x="134" y="78" text-anchor="middle">Data Profiling</text><text x="134" y="90" text-anchor="middle">&amp; Cleaning</text>
    <polygon points="177,60 248,60 261,78 248,96 177,96" fill="#1c89d5"/><text x="213" y="82" text-anchor="middle">KPI</text><text x="213" y="92" text-anchor="middle">Development</text>
    <polygon points="252,60 338,60 351,78 338,96 252,96" fill="#1c89d5"/><text x="295" y="82" text-anchor="middle">KPI Development</text>
    <polygon points="342,60 421,60 434,78 421,96 342,96" fill="#1a7fc8"/><text x="381" y="78" text-anchor="middle">Metadata &amp;</text><text x="381" y="90" text-anchor="middle">Queries</text>
    <polygon points="425,60 503,60 516,78 503,96 425,96" fill="#0e73bf"/><text x="464" y="78" text-anchor="middle">Interactive</text><text x="464" y="90" text-anchor="middle">Dashboards</text>
  </g>

  <rect x="22" y="110" width="487" height="228" fill="#f7fbff" stroke="#d4e3ef"/>
  <line x1="103" y1="110" x2="103" y2="338" stroke="#dbe8f2"/><line x1="189" y1="110" x2="189" y2="338" stroke="#dbe8f2"/><line x1="296" y1="110" x2="296" y2="338" stroke="#dbe8f2"/><line x1="392" y1="110" x2="392" y2="338" stroke="#dbe8f2"/>

  <g font-family="Arial, sans-serif" fill="#0b3561" font-size="12" font-weight="700">
    <text x="63" y="136" text-anchor="middle">CSV</text>
    <text x="146" y="136" text-anchor="middle">AWS</text>
    <text x="243" y="136" text-anchor="middle">KPI</text>
    <text x="344" y="136" text-anchor="middle">AWS Glue ETL Job</text>
    <text x="442" y="136" text-anchor="middle">Register Tables</text>
    <text x="463" y="172" text-anchor="middle">QuickSight</text>
  </g>

  <g font-family="Arial, sans-serif" fill="#1f3f61" font-size="11">
    <text x="35" y="200">Store Raw CSV Files</text>
    <text x="114" y="187">Identify Issues</text>
    <text x="114" y="204">Clean Data</text>
    <text x="310" y="192">Avg Length of Stay</text>
    <text x="310" y="210">Patient Volume by Type</text>
    <text x="310" y="228">Dimensional Enrichment</text>
    <text x="310" y="246">Category Bucketing</text>
    <text x="402" y="202">Run SQL Queries</text>
    <text x="449" y="202">Visualize Insights</text>
    <text x="449" y="220">Monitor KPIs</text>
  </g>

  <g fill="none" stroke="#74b7e3" stroke-width="4">
    <path d="M74 152h20"/><path d="M168 152h20"/><path d="M276 152h20"/><path d="M372 152h20"/>
  </g>

  <rect x="107" y="352" width="316" height="24" rx="4" fill="#d7ecfb"/>
  <text x="265" y="369" text-anchor="middle" font-family="Arial, sans-serif" font-size="14" font-weight="700" fill="#124065">Cleaned &amp; Curated Data Lake on AWS</text>
</svg>
