<svg xmlns="http://www.w3.org/2000/svg" width="640" height="427" viewBox="0 0 640 427">
  <defs>
    <linearGradient id="bg" x1="0" y1="0" x2="0" y2="1">
      <stop offset="0" stop-color="#7ebed1"/>
      <stop offset="1" stop-color="#7bb9cd"/>
    </linearGradient>
    <filter id="shadow" x="-20%" y="-20%" width="140%" height="160%">
      <feDropShadow dx="0" dy="6" stdDeviation="5" flood-color="#27424f" flood-opacity="0.35"/>
    </filter>
  </defs>
  <rect width="640" height="427" fill="url(#bg)"/>
  <g transform="translate(0,18)" filter="url(#shadow)">
    <rect x="144" y="281" width="350" height="14" rx="7" fill="#284f62" opacity="0.9"/>
    <rect x="299" y="184" width="42" height="103" rx="8" fill="#395b70"/>
    <circle cx="320" cy="220" r="37" fill="#e6eef4" stroke="#314f61" stroke-width="6"/>
    <path d="M309 220h22l-7-7m7 7-7 7" fill="none" stroke="#314f61" stroke-width="5" stroke-linecap="round" stroke-linejoin="round"/>

    <polygon points="171,223 299,199 299,218 171,240" fill="#2f4f63"/>
    <polygon points="341,218 469,199 469,240 341,258" fill="#2f4f63"/>

    <rect x="113" y="158" width="114" height="78" rx="8" fill="#74b655"/>
    <text x="170" y="192" text-anchor="middle" font-family="Arial Black, Arial, sans-serif" font-size="24" fill="#d4ffbc">TRUTH</text>
    <text x="170" y="217" text-anchor="middle" font-family="Arial Black, Arial, sans-serif" font-size="24" fill="#d4ffbc">FACTS</text>

    <rect x="413" y="158" width="114" height="78" rx="8" fill="#d94646"/>
    <text x="470" y="193" text-anchor="middle" font-family="Arial Black, Arial, sans-serif" font-size="24" fill="#ffd1d1">FAKE</text>
    <text x="470" y="218" text-anchor="middle" font-family="Arial Black, Arial, sans-serif" font-size="24" fill="#ffd1d1">NEWS</text>
  </g>
</svg>
