<svg xmlns="http://www.w3.org/2000/svg" width="640" height="427" viewBox="0 0 640 427">
  <rect width="640" height="427" fill="#030508"/>
  <g opacity="0.32" fill="#c8c8c8">
    <rect x="39" y="40" width="20" height="70"/>
    <rect x="112" y="70" width="16" height="120"/>
    <rect x="192" y="28" width="22" height="82"/>
    <rect x="264" y="150" width="18" height="120"/>
    <rect x="354" y="44" width="22" height="140"/>
    <rect x="460" y="62" width="18" height="100"/>
    <rect x="540" y="36" width="24" height="76"/>
  </g>
  <g fill="#fff" opacity="0.22" font-family="Consolas, monospace" font-size="14">
    <text x="18" y="176">function parse_data() &#123;</text>
    <text x="18" y="194">  const response = await fetch(url);</text>
    <text x="18" y="212">  return response.text();</text>
    <text x="18" y="230">&#125;</text>
    <text x="460" y="146">Fetching News</text>
    <text x="460" y="164">status: 200</text>
  </g>
  <g>
    <rect x="84" y="286" width="150" height="48" fill="#ececec" opacity="0.95"/>
    <text x="96" y="305" font-family="Arial, sans-serif" font-size="13" fill="#111">WEB SCRAPERS</text>
    <text x="96" y="322" font-family="Arial, sans-serif" font-size="12" fill="#111">Yeoman, Gulp</text>
  </g>
  <g opacity="0.46" stroke="#9f9f9f" stroke-width="2">
    <line x1="0" y1="142" x2="640" y2="142"/>
    <line x1="0" y1="278" x2="640" y2="278"/>
  </g>
</svg>
